<svg width="21" height="24" viewBox="0 0 21 24" fill="none" xmlns="http://www.w3.org/2000/svg">
<g id="CeroInteres" clip-path="url(#clip0_188_930)">
<path id="Vector" d="M9.07368 2.165C9.04998 2.12151 9.02311 2.08118 8.99782 2.03927C8.62481 1.41618 8.11903 0.925145 7.47812 0.56932C7.46864 0.563785 7.45837 0.559831 7.44888 0.554296C6.77241 0.185029 5.99083 0 5.10493 0C4.17478 0 3.36712 0.189773 2.68353 0.56932C1.99915 0.948867 1.46967 1.48023 1.09429 2.165C0.718911 2.84897 0.531616 3.66895 0.531616 4.62256V12.7536C0.531616 13.6921 0.718911 14.5098 1.09429 15.2056C1.11879 15.2515 1.14645 15.2949 1.17253 15.34C1.54238 15.9702 2.04657 16.4628 2.68906 16.8131C2.69381 16.8155 2.69776 16.8171 2.7025 16.8195C3.38767 17.1903 4.18821 17.3761 5.10493 17.3761C6.02165 17.3761 6.79533 17.1887 7.4797 16.8131C8.16408 16.4375 8.69514 15.9022 9.07448 15.2056C9.45381 14.5098 9.64347 13.6921 9.64347 12.7536V4.62256C9.64347 3.66816 9.45381 2.84897 9.07448 2.16421L9.07368 2.165ZM6.30061 13.1299C6.30061 13.4431 6.25162 13.7088 6.15441 13.9278C6.05642 14.1468 5.91812 14.3192 5.73794 14.4441C5.55776 14.5691 5.3428 14.6323 5.09308 14.6323C4.84335 14.6323 4.61417 14.5698 4.43083 14.4441C4.24669 14.3192 4.10602 14.1468 4.00882 13.9278C3.99618 13.8993 3.98432 13.8693 3.97326 13.8392C3.89976 13.6384 3.86262 13.402 3.86262 13.1299V4.25883C3.86262 3.9378 3.91162 3.66816 4.00882 3.44913C4.10681 3.2301 4.24748 3.0601 4.43083 2.93911C4.61417 2.81813 4.83545 2.75725 5.09308 2.75725C5.35071 2.75725 5.55776 2.81576 5.73794 2.93358C5.91733 3.05061 6.05642 3.2214 6.15441 3.4436C6.16627 3.47127 6.17733 3.49895 6.1884 3.52741C6.26347 3.73379 6.3014 3.97733 6.3014 4.25883V13.1292L6.30061 13.1299Z" fill="url(#paint0_linear_188_930)"/>
<path id="Vector_2" d="M15.1824 16.0746C15.4132 16.4581 15.7356 16.757 16.1497 16.9721C16.5638 17.1871 17.053 17.2947 17.6157 17.2947C18.1784 17.2947 18.6668 17.1871 19.0816 16.9721C19.4958 16.757 19.8206 16.4581 20.0553 16.0746C20.29 15.6911 20.4069 15.238 20.4069 14.7138V11.0527C20.4069 10.5443 20.29 10.0967 20.0553 9.70927C19.8206 9.32182 19.4942 9.02292 19.0761 8.8118C18.6589 8.60068 18.1728 8.49551 17.6188 8.49472L14.8497 14.9945C14.8845 15.4009 14.9944 15.7615 15.1824 16.0738V16.0746ZM17.053 10.7593C17.053 10.6107 17.0996 10.4937 17.1937 10.4075C17.2877 10.3213 17.4244 10.2786 17.6038 10.2786C17.7832 10.2786 17.9247 10.3197 18.0258 10.4019C18.1278 10.4842 18.1784 10.6036 18.1784 10.7601V15.0308C18.1784 15.1637 18.1278 15.2775 18.0258 15.3708C17.9239 15.4649 17.7832 15.5116 17.6038 15.5116C17.4244 15.5116 17.2869 15.4649 17.1937 15.3708C17.0996 15.2767 17.053 15.1637 17.053 15.0308V10.7601V10.7593Z" fill="#A83338"/>
<path id="Vector_3" d="M16.0249 1.30233C15.7863 0.918829 15.4599 0.619936 15.0458 0.40486C14.6317 0.189783 14.1425 0.0822449 13.5798 0.0822449C13.0171 0.0822449 12.5382 0.189783 12.1202 0.40486C11.7021 0.619936 11.3773 0.917247 11.1466 1.29679C10.9158 1.67634 10.8004 2.1318 10.8004 2.66395V6.325C10.8004 6.83343 10.9158 7.2794 11.1466 7.6629C11.3773 8.0464 11.7037 8.34529 12.1257 8.56037C12.5445 8.77386 13.0242 8.88061 13.5664 8.88298L16.3616 2.29785C16.3181 1.92542 16.2059 1.59331 16.0249 1.30233ZM14.1314 6.61756C14.1314 6.7504 14.0848 6.86585 13.9908 6.9639C13.8967 7.06195 13.76 7.11018 13.5806 7.11018C13.4012 7.11018 13.2582 7.06353 13.1523 6.96943C13.0464 6.87534 12.9942 6.75831 12.9942 6.61756V2.34687C12.9942 2.20612 13.0472 2.09068 13.1523 2.00054C13.2582 1.91039 13.4004 1.86532 13.5806 1.86532C13.7608 1.86532 13.8975 1.90802 13.9908 1.99421C14.0848 2.0804 14.1314 2.19743 14.1314 2.34608V6.61677V6.61756Z" fill="#EF3742"/>
<path id="Vector_4" d="M18.1018 0.222992L15.8408 5.54772L14.4705 8.77544L10.9135 17.1539H13.0709L14.8364 13.009L16.7133 8.60307L20.2829 0.222992H18.1018Z" fill="#7A232E"/>
<path id="Vector_5" d="M0.5 18.9789H1.73678V23.9257H0.5V18.9789Z" fill="#A83338"/>
<path id="Vector_6" d="M3.14508 20.9842L3.15851 23.9257H2.11377V18.9789H3.40192L4.24119 21.9267L4.23407 18.9789H5.27565V23.9257H4.00806" fill="#A83338"/>
<path id="Vector_7" d="M6.32747 20.01H5.54272V18.9781H8.35531V20.01H7.56424V23.9249H6.32747V20.01Z" fill="#A83338"/>
<path id="Vector_8" d="M8.61926 18.9789H11.0446V20.0108H9.85604V20.9707H10.9901V21.9133H9.85604V22.8938H11.0446V23.9257H8.61926V18.9789Z" fill="#A83338"/>
<path id="Vector_9" d="M11.405 18.9789H13.1729C13.4352 18.9789 13.6581 19.0271 13.8407 19.1228C14.0232 19.2185 14.1615 19.3553 14.2548 19.5324C14.348 19.7095 14.3954 19.9286 14.3954 20.1887V21.0079C14.3954 21.223 14.3535 21.408 14.2706 21.563C14.1868 21.7188 14.0801 21.8382 13.9505 21.9228L14.4713 23.9249H13.1966L12.8062 22.1592H12.6418V23.9249H11.405V18.9781V18.9789ZM12.8299 21.2862C12.9255 21.2862 13.0014 21.2617 13.0559 21.2127C13.1104 21.1637 13.1381 21.0933 13.1381 21.0016V20.2267C13.1381 20.1334 13.1112 20.0622 13.0575 20.014C13.0038 19.9657 12.9279 19.942 12.8299 19.942H12.6418V21.2854H12.8299V21.2862Z" fill="#A83338"/>
<path id="Vector_10" d="M14.7446 18.9789H17.17V20.0108H15.9814V20.9708H17.1154V21.9133H15.9814V22.8938H17.17V23.9257H14.7446V18.9789ZM15.5562 18.6429L15.9877 17.5185H16.9677L16.3102 18.6429H15.5562Z" fill="#A83338"/>
<path id="Vector_11" d="M18.1263 23.8324C17.9089 23.7201 17.7446 23.562 17.6331 23.3556C17.5217 23.1492 17.4632 22.9064 17.4585 22.6257L17.4553 22.3656H18.6131V22.6771C18.6154 22.7459 18.6289 22.8036 18.6542 22.8503C18.6795 22.897 18.7126 22.9325 18.7553 22.9563C18.798 22.98 18.8494 22.9926 18.911 22.9926C18.9726 22.9926 19.0209 22.9816 19.0619 22.9602C19.103 22.9389 19.1331 22.908 19.1528 22.8693C19.1726 22.8305 19.1821 22.7847 19.1821 22.7325V22.6226C19.1821 22.4874 19.1465 22.3743 19.0762 22.2834C19.005 22.1916 18.8739 22.0888 18.6818 21.975L18.3665 21.7765C18.0812 21.6144 17.8615 21.4238 17.7074 21.2056C17.5533 20.9874 17.4759 20.709 17.4759 20.3706V20.2915C17.4782 20.0148 17.5399 19.7736 17.6608 19.568C17.7817 19.3624 17.9516 19.2003 18.1713 19.0809C18.3902 18.9623 18.6478 18.903 18.9418 18.903C19.2619 18.903 19.5258 18.9631 19.7353 19.0833C19.9439 19.2035 20.1012 19.3664 20.2063 19.5735C20.3114 19.7807 20.3635 20.0195 20.3635 20.2915L20.3667 20.5414H19.2192V20.2291C19.2145 20.1626 19.2026 20.1065 19.1829 20.0591C19.1631 20.0124 19.1354 19.976 19.0991 19.9507C19.0627 19.9254 19.0145 19.9128 18.9553 19.9128C18.9031 19.9104 18.8573 19.9215 18.8201 19.9452C18.7822 19.9689 18.7537 20.0021 18.7324 20.0432C18.7119 20.0844 18.7016 20.131 18.7016 20.184V20.2868C18.7016 20.4196 18.734 20.5287 18.7996 20.6141C18.8644 20.6995 18.9774 20.7905 19.137 20.8869L19.4555 21.072C19.6839 21.2072 19.868 21.3448 20.0087 21.4847C20.1494 21.6247 20.2521 21.7781 20.3169 21.9441C20.3817 22.1102 20.4149 22.3 20.4149 22.515V22.6044C20.4149 22.8835 20.3548 23.1263 20.2347 23.3342C20.1146 23.5422 19.9439 23.7051 19.7226 23.8229C19.5013 23.9407 19.2398 23.9992 18.9379 23.9992C18.6139 23.9992 18.3428 23.9431 18.1263 23.8316V23.8324Z" fill="#A83338"/>
</g>
<defs>
<linearGradient id="paint0_linear_188_930" x1="-0.288688" y1="14.0646" x2="10.4588" y2="3.32397" gradientUnits="userSpaceOnUse">
<stop stop-color="#A83338"/>
<stop offset="1" stop-color="#EF3742"/>
</linearGradient>
<clipPath id="clip0_188_930">
<rect width="19.9149" height="24" fill="white" transform="translate(0.5)"/>
</clipPath>
</defs>
</svg>
